<?xml version="1.0" encoding="UTF-8" standalone="no"?>
<svg
   xmlns:dc="http://purl.org/dc/elements/1.1/"
   xmlns:cc="http://creativecommons.org/ns#"
   xmlns:rdf="http://www.w3.org/1999/02/22-rdf-syntax-ns#"
   xmlns:svg="http://www.w3.org/2000/svg"
   xmlns="http://www.w3.org/2000/svg"
   xmlns:sodipodi="http://sodipodi.sourceforge.net/DTD/sodipodi-0.dtd"
   xmlns:inkscape="http://www.inkscape.org/namespaces/inkscape"
   width="1em"
   height="1em"
   viewBox="0 0 16 16"
   class="bi bi-bezier2"
   fill="currentColor"
   version="1.1"
   id="svg54"
   sodipodi:docname="commits_unselected.svg"
   inkscape:version="1.0.1 (3bc2e813f5, 2020-09-07)">
  <metadata
     id="metadata60">
    <rdf:RDF>
      <cc:Work
         rdf:about="">
        <dc:format>image/svg+xml</dc:format>
        <dc:type
           rdf:resource="http://purl.org/dc/dcmitype/StillImage" />
        <dc:title></dc:title>
      </cc:Work>
    </rdf:RDF>
  </metadata>
  <defs
     id="defs58" />
  <sodipodi:namedview
     pagecolor="#ffffff"
     bordercolor="#666666"
     borderopacity="1"
     objecttolerance="10"
     gridtolerance="10"
     guidetolerance="10"
     inkscape:pageopacity="0"
     inkscape:pageshadow="2"
     inkscape:window-width="1875"
     inkscape:window-height="1389"
     id="namedview56"
     showgrid="false"
     inkscape:zoom="63"
     inkscape:cx="8"
     inkscape:cy="8"
     inkscape:window-x="15"
     inkscape:window-y="34"
     inkscape:window-maximized="0"
     inkscape:current-layer="svg54" />
  <path
     fill-rule="evenodd"
     d="M1 2.5A1.5 1.5 0 0 1 2.5 1h1A1.5 1.5 0 0 1 5 2.5h4.134a1 1 0 1 1 0 1h-2.01c.18.18.34.381.484.605.638.992.892 2.354.892 3.895 0 1.993.257 3.092.713 3.7.356.476.895.721 1.787.784A1.5 1.5 0 0 1 12.5 11h1a1.5 1.5 0 0 1 1.5 1.5v1a1.5 1.5 0 0 1-1.5 1.5h-1a1.5 1.5 0 0 1-1.5-1.5H6.866a1 1 0 1 1 0-1h1.711a2.839 2.839 0 0 1-.165-.2C7.743 11.407 7.5 10.007 7.5 8c0-1.46-.246-2.597-.733-3.355-.39-.605-.952-1-1.767-1.112A1.5 1.5 0 0 1 3.5 5h-1A1.5 1.5 0 0 1 1 3.5v-1zM2.5 2a.5.5 0 0 0-.5.5v1a.5.5 0 0 0 .5.5h1a.5.5 0 0 0 .5-.5v-1a.5.5 0 0 0-.5-.5h-1zm10 10a.5.5 0 0 0-.5.5v1a.5.5 0 0 0 .5.5h1a.5.5 0 0 0 .5-.5v-1a.5.5 0 0 0-.5-.5h-1z"
     id="path52"
     style="fill:#b3b3b3" />
</svg>
