<?xml version="1.0" encoding="UTF-8" standalone="no"?>
<svg
   xmlns:dc="http://purl.org/dc/elements/1.1/"
   xmlns:cc="http://creativecommons.org/ns#"
   xmlns:rdf="http://www.w3.org/1999/02/22-rdf-syntax-ns#"
   xmlns:svg="http://www.w3.org/2000/svg"
   xmlns="http://www.w3.org/2000/svg"
   xmlns:sodipodi="http://sodipodi.sourceforge.net/DTD/sodipodi-0.dtd"
   xmlns:inkscape="http://www.inkscape.org/namespaces/inkscape"
   width="1em"
   height="1em"
   viewBox="0 0 16 16"
   class="bi bi-receipt-cutoff"
   fill="currentColor"
   version="1.1"
   id="svg546"
   sodipodi:docname="logs.svg"
   inkscape:version="1.0.1 (3bc2e813f5, 2020-09-07)">
  <metadata
     id="metadata552">
    <rdf:RDF>
      <cc:Work
         rdf:about="">
        <dc:format>image/svg+xml</dc:format>
        <dc:type
           rdf:resource="http://purl.org/dc/dcmitype/StillImage" />
      </cc:Work>
    </rdf:RDF>
  </metadata>
  <defs
     id="defs550" />
  <sodipodi:namedview
     pagecolor="#ffffff"
     bordercolor="#666666"
     borderopacity="1"
     objecttolerance="10"
     gridtolerance="10"
     guidetolerance="10"
     inkscape:pageopacity="0"
     inkscape:pageshadow="2"
     inkscape:window-width="1875"
     inkscape:window-height="1389"
     id="namedview548"
     showgrid="false"
     inkscape:zoom="64"
     inkscape:cx="7.2034647"
     inkscape:cy="8.3535263"
     inkscape:window-x="15"
     inkscape:window-y="34"
     inkscape:window-maximized="0"
     inkscape:current-layer="svg546" />
  <g
     id="g560"
     transform="rotate(90,8,8.2495531)"
     style="fill:#ffffff">
    <path
       fill-rule="evenodd"
       d="m 1.92,0.506 a 0.5,0.5 0 0 1 0.434,0.14 L 3,1.293 3.646,0.646 a 0.5,0.5 0 0 1 0.708,0 L 5,1.293 5.646,0.646 a 0.5,0.5 0 0 1 0.708,0 L 7,1.293 7.646,0.646 a 0.5,0.5 0 0 1 0.708,0 L 9,1.293 9.646,0.646 a 0.5,0.5 0 0 1 0.708,0 L 11,1.293 11.646,0.646 a 0.5,0.5 0 0 1 0.708,0 L 13,1.293 13.646,0.646 a 0.5,0.5 0 0 1 0.801,0.13 l 0.5,1 A 0.5,0.5 0 0 1 15,2 V 15 H 14 V 2.118 l -0.137,-0.274 -0.51,0.51 a 0.5,0.5 0 0 1 -0.707,0 L 12,1.707 11.354,2.354 a 0.5,0.5 0 0 1 -0.708,0 L 10,1.707 9.354,2.354 a 0.5,0.5 0 0 1 -0.708,0 L 8,1.707 7.354,2.354 a 0.5,0.5 0 0 1 -0.708,0 L 6,1.707 5.354,2.354 a 0.5,0.5 0 0 1 -0.708,0 L 4,1.707 3.354,2.354 a 0.5,0.5 0 0 1 -0.708,0 L 2.137,1.844 2,2.118 V 15 H 1 V 2 A 0.5,0.5 0 0 1 1.053,1.776 l 0.5,-1 A 0.5,0.5 0 0 1 1.92,0.506 Z M 0,15.5 A 0.5,0.5 0 0 1 0.5,15 h 15 a 0.5,0.5 0 0 1 0,1 H 0.5 A 0.5,0.5 0 0 1 0,15.5 Z"
       id="path542"
       style="fill:#ffffff" />
    <path
       fill-rule="evenodd"
       d="M 3,4.5 A 0.5,0.5 0 0 1 3.5,4 h 6 a 0.5,0.5 0 1 1 0,1 h -6 A 0.5,0.5 0 0 1 3,4.5 Z m 0,2 A 0.5,0.5 0 0 1 3.5,6 h 6 a 0.5,0.5 0 1 1 0,1 h -6 A 0.5,0.5 0 0 1 3,6.5 Z m 0,2 A 0.5,0.5 0 0 1 3.5,8 h 6 a 0.5,0.5 0 1 1 0,1 h -6 A 0.5,0.5 0 0 1 3,8.5 Z m 0,2 A 0.5,0.5 0 0 1 3.5,10 h 6 a 0.5,0.5 0 0 1 0,1 h -6 A 0.5,0.5 0 0 1 3,10.5 Z m 0,2 A 0.5,0.5 0 0 1 3.5,12 h 6 a 0.5,0.5 0 0 1 0,1 h -6 A 0.5,0.5 0 0 1 3,12.5 Z m 8,-8 A 0.5,0.5 0 0 1 11.5,4 h 1 a 0.5,0.5 0 0 1 0,1 h -1 A 0.5,0.5 0 0 1 11,4.5 Z m 0,2 A 0.5,0.5 0 0 1 11.5,6 h 1 a 0.5,0.5 0 0 1 0,1 h -1 A 0.5,0.5 0 0 1 11,6.5 Z m 0,2 A 0.5,0.5 0 0 1 11.5,8 h 1 a 0.5,0.5 0 0 1 0,1 h -1 A 0.5,0.5 0 0 1 11,8.5 Z m 0,2 A 0.5,0.5 0 0 1 11.5,10 h 1 a 0.5,0.5 0 0 1 0,1 h -1 A 0.5,0.5 0 0 1 11,10.5 Z m 0,2 A 0.5,0.5 0 0 1 11.5,12 h 1 a 0.5,0.5 0 0 1 0,1 h -1 A 0.5,0.5 0 0 1 11,12.5 Z"
       id="path544"
       style="fill:#ffffff" />
  </g>
</svg>
